<?xml version="1.0" encoding="utf-8"?>
<!-- Generator: Adobe Illustrator 21.0.0, SVG Export Plug-In . SVG Version: 6.00 Build 0)  -->
<svg version="1.1" xmlns="http://www.w3.org/2000/svg" xmlns:xlink="http://www.w3.org/1999/xlink" x="0px" y="0px"
	 viewBox="0 0 423.9 389.3" style="enable-background:new 0 0 423.9 389.3;" xml:space="preserve">
<style type="text/css">
	.st0{fill:#1479FF;}
	.st1{display:none;}
	.st2{display:inline;}
	.st3{display:inline;fill:#1479FF;}
	.st4{display:inline;fill:none;stroke:#1479FF;stroke-width:9.8085;stroke-miterlimit:10;}
	.st5{display:inline;fill:none;stroke:#1479FF;stroke-width:9.467;stroke-linecap:round;stroke-miterlimit:10;}
	.st6{display:inline;fill:none;stroke:#1479FF;stroke-width:9;stroke-linecap:round;stroke-miterlimit:10;}
</style>
<g id="Layer_1">
	<title>Asset 1</title>
	<g id="Layer_2">
		<g id="Layer_1-2">
			<path class="st0" d="M407.6,209.7c-6.1-5.6-12.1-11.1-18.2-16.7l-9.1-8.4L352.6,159c-46.2-42.6-92.5-85.2-138.8-127.9
				c-0.6-0.6-1.1-1-1.5-1.3l195.1,180h0.3C407.7,209.7,407.6,209.7,407.6,209.7z M86.1,211.3c-1-0.1-2-0.2-3.1-0.1h-0.6
				c0.9,0.4,1.6,1,2.3,1.6c0.6,0.5,1.1,1.1,1.5,1.8v-0.2C86.3,213.3,86.3,212.3,86.1,211.3z"/>
			<path class="st0" d="M418.2,199.9c-6.1-5.5-12.1-11.1-18.1-16.7l-9.1-8.4l-27.8-25.6C317,106.6,270.7,64,224.5,21.3
				c-3.4-3.1-7.2-6-12.4-6.1c-5.2,0-9.2,3-12.4,5.9l-65,59.9C91.9,120.5,49.1,160,6.3,199.4l-0.2,0.2c-2.7,2.5-8.4,7.7-5.1,15.5
				c3.6,8.6,12.7,8.6,16.2,8.6c15.1,0,30.2,0,45.4,0h10.3v43.8c0,30.2,0,60.5,0,90.7c0,11.1,5.2,15.9,17.2,15.9h50.7l0,0h142.7v-0.1
				c16.5,0,33.1,0,49.6,0c13.4,0,18.2-4.4,18.2-16.9v-42c0-30.5,0-61,0-91.5h13.4c14.3,0,28.5,0,42.8,0c2.9,0,11.5,0,15.2-8
				C426.5,207.5,420.2,201.7,418.2,199.9z M86.3,214.5c-0.4-0.7-0.9-1.3-1.5-1.8c-0.7-0.6-1.5-1.2-2.3-1.6h0.6c1,0,2,0,3.1,0.1
				c0.1,1,0.2,2,0.2,3.1V214.5z M340.6,197.4c-12.5,0-17.8,4.9-17.8,16.4c0,32.9,0,65.7,0,98.6v35.1h-48v-0.6h-28.5v0.4h-68.7v-0.4
				h-28.4v0.5h-47.9v-35.5c0-32.5,0-65,0-97.5c0-12.1-5.3-17-18.2-17c-10.4,0-20.8,0-31.2,0h-1.2L211.8,48.9l161,148.5L340.6,197.4z
				 M407.5,209.8l-195.1-180c0.4,0.3,0.9,0.7,1.5,1.3c46.3,42.6,92.5,85.2,138.8,127.9l27.8,25.6l9.1,8.4c6,5.6,12.1,11.2,18.2,16.7
				c0,0,0.1,0.1,0.1,0.1L407.5,209.8z"/>
			<rect x="140.7" y="347.2" class="st0" width="8.5" height="0.1"/>
		</g>
	</g>
</g>
<g id="Layer_2_1_" class="st1">
	<g class="st2">
		<path class="st0" d="M393.9,96.9v225.3H30V96.9H393.9 M405.3,66.9H18.5C8.3,66.9,0,75.2,0,85.5v248.2c0,10.2,8.3,18.5,18.5,18.5
			h386.8c10.2,0,18.5-8.3,18.5-18.5V85.5C423.9,75.2,415.5,66.9,405.3,66.9L405.3,66.9z"/>
	</g>
	<g class="st2">
		<path class="st0" d="M365.1,97L211.9,207.4L58.7,97H365.1 M403.8,67H20C3,67-4,88.7,9.8,98.7L201.7,237c3.1,2.2,6.6,3.3,10.2,3.3
			s7.2-1.1,10.2-3.3L414.1,98.7C427.8,88.7,420.8,67,403.8,67L403.8,67z"/>
	</g>
</g>
<g id="Layer_3" class="st1">
	<g class="st2">
		<g>
			<path class="st0" d="M44.8,352.8c-11.6,0-20.9-4.7-27.9-14c-6.4-8.6-9.7-18.4-9.7-29.1c0-67.1,0-134.2,0-201.4
				c0-8.2,0.1-16.6,0.1-24.6l0-6.6c0.1-14.4,5.3-26,15.4-34.4c6.6-5.4,14-8.1,22.7-8.1c62.2,0.1,124.3,0.1,186.4,0.1l45.3,0
				c4.9,0,10.6,0,16.3-0.1l0.5,0c11.9,0,21.6,4.7,29,13.9c1.3,1.7,2.8,2.4,4.9,2.6c3.2,0.2,6.9,0.5,10.5,1.2c14,2.7,24.6,13.7,27,28
				c0.5,3.1,1.5,4.1,4.3,4.9c15,4,23.7,14.2,25.2,29.6c0.2,2.3,1,2.9,4.2,4.2c10.3,4.2,16.7,12,19.1,23c1.6,7.3,1.1,14.2-1.6,20.6
				c-5.9,14.1-12.1,28.7-18.6,43.3c-14.1,31.9-28.4,64.3-42.3,95.6L345,325.9c-0.9,2-1.8,3.8-2.7,5.5c-6.8,12.4-17.1,19.3-30.8,20.5
				c-5,0.5-10.5,0.9-16,0.9c-21.7,0-43.4,0-65.1,0l-123.7,0C86.1,352.8,65.5,352.8,44.8,352.8L44.8,352.8z M50.2,53.9
				c-2.7,0-4.8,0-6.8,0.2c-6.1,0.3-10.5,3.1-13,8.2c-2.2,4.5-3.5,8.5-3.7,11.9c-0.6,8.5-0.5,17.3-0.5,25.8c0,1.8,0,3.6,0,5.3
				c0,58.3,0,121.6,0,199.2c0,3.5,0,6.9,0.4,10.2c1.1,9.4,7.3,16.4,15.6,18c1.9,0.4,4,0.4,5.8,0.4c0.7,0,1.4,0,2,0
				c0.7,0,1.4,0,2.1,0c22.4,0,44.7,0,67,0l48,0l3.5,0H207c28.9,0,57.8,0,86.7,0h0.2c1.7,0,3.2,0,4.6-0.3c7.2-1.6,12-6.4,14.2-14.3
				c1.2-4.2,1.3-9.1,1.3-13.7c0.1-75,0.1-151.2,0.1-224.9v-0.1c0-2.4-0.1-4.8-0.4-7.4c-1-9.6-6.3-15.6-15.2-17.6
				c-2.5-0.5-5.3-0.8-8.9-0.8c-25.6,0-51.2,0-76.8,0c-45.2,0-90.3,0-135.5,0l-18.7,0c-1.4,0-2.8,0-4.2,0
				C52.9,53.9,51.6,53.9,50.2,53.9z M365.1,237.8c11.5-25.9,22.9-51.8,34.3-77.7c1-2.2,1.6-4.1,2.1-5.8c2-8-1.2-15.3-8.3-19.1
				L365.1,237.8z M347.9,233.2c9.6-35.1,19.3-70.2,28.9-105.3c1.4-5.2,1.7-9.4,0.7-13.3c-1.5-6.3-6.3-11-12-12L347.9,233.2z
				 M332.5,69.6c0.1,1.7,0.1,3.3,0.1,4.9c0,0.5,0,1,0,1.5c0.1,44.8,0.1,89.7,0.2,134.5c1.4-10,2.7-19.9,4.1-29.9
				c0.9-6.3,1.7-12.6,2.6-18.9c0.7-5.4,1.5-10.8,2.2-16.2c1.8-12.8,3.6-26,5.2-39l0-0.2c0.9-6.7,1.7-13.7,1.5-20.4
				C348.1,77,341.5,70.3,332.5,69.6z"/>
			<path class="st0" d="M45.5,38.1C45.5,38.1,45.5,38.1,45.5,38.1c74.2,0.1,148.3,0.1,222.4,0.1c3.1,0,6.2,0,9.3,0
				c5.5,0,10.9,0,16.4-0.1c0.2,0,0.3,0,0.5,0c10.8,0,19.5,4.2,26.3,12.6c2,2.5,4.3,3.7,7.4,3.9c3.4,0.3,6.8,0.5,10.1,1.1
				c12.3,2.4,22,12.3,24.2,25.2c0.7,4.3,2.6,6.5,6.9,7.7c13.5,3.6,21.3,12.6,22.6,26.5c0.4,4.4,3,5.7,6.3,7.1
				c9.2,3.8,14.9,10.7,17,20.5c1.4,6.3,1.1,12.6-1.4,18.5c-6,14.5-12.2,28.9-18.5,43.2c-17.6,40-35.4,80-53.1,120
				c-0.8,1.8-1.6,3.5-2.5,5.2c-6.1,11.1-15.4,17.6-28.1,18.7c-5.2,0.5-10.4,0.9-15.7,0.9c-21.6,0-43.3,0-64.9,0
				c-17.2,0-34.4,0-51.6,0c-1.4,0-2.9,0-4.3,0c-2,0-4,0-6,0c-20.8,0-41.6,0-62.5,0c-20.5,0-40.9,0-61.4,0c0,0,0,0,0,0
				c-10.5,0-18.8-4.2-25-12.6c-6-8-9-17-9-27c0-67.1,0-134.2,0-201.4c0-10.4,0.1-20.8,0.2-31.2c0.1-12.6,4.2-23.5,14.1-31.8
				C31,40.5,37.7,38.1,45.5,38.1 M48,336.5c1.4,0,2.8,0,4.1,0c0,0,0,0,0.1,0c22.7,0,45.4,0,68.1,0c16.8,0,33.5,0,50.3,0c0,0,0,0,0,0
				c13.1,0,26.2,0,39.3,0c27.9,0,55.8,0,83.8,0c1.8,0,3.7,0,5.5-0.4c9.2-2,14.5-8.3,16.8-16.8c1.3-4.6,1.4-9.7,1.4-14.6
				c0.1-75,0.1-150,0.1-225c0-2.6-0.1-5.2-0.4-7.7c-1.1-11-7.5-18.4-18-20.6c-3.1-0.7-6.4-0.9-9.6-0.9c-25.7,0-51.4,0-77.1,0
				c-51.3,0-102.7,0-154,0c0,0,0,0-0.1,0c-2.7,0-5.5,0-8.2,0c-2.3,0-4.7,0-7,0.2c-7.1,0.4-12.8,3.8-15.9,10.1
				c-2,4.1-3.8,8.7-4.1,13.2c-0.7,10.4-0.5,20.9-0.5,31.4c0,66.4,0,132.8,0,199.2c0,3.5,0,7.1,0.5,10.6c1.3,10.8,8.6,19.2,18.5,21
				C43.7,336.4,45.9,336.5,48,336.5 M329.8,254.5c0.2-0.6,0.4-1.3,0.5-1.9c1.5-10.6,3.1-21.2,4.6-31.8c2.7-19.5,5.3-39.1,8-58.6
				c2.5-18.4,5.1-36.8,7.5-55.3c0.9-7,1.8-14.1,1.6-21.1c-0.3-11.3-9.1-19.4-20.2-19.7c-0.2,0-0.3,0-0.4,0c-1.8,0-2.7,0.4-2.4,2.7
				c0.3,2.4,0.2,4.8,0.2,7.2c0.1,58.2,0.1,116.3,0.2,174.5c0,1.3,0,2.7,0,4C329.4,254.5,329.6,254.5,329.8,254.5 M338.8,279.5
				c0.9-3.3,1.8-6.6,2.8-9.9c12.9-46.9,25.8-93.8,38.7-140.8c1.4-4.9,2-9.9,0.7-15c-2.1-8.7-9.5-14.9-17.9-14.9c-0.2,0-0.4,0-0.5,0
				c-8.1,60.3-16.2,120.4-24.3,180.6C338.4,279.5,338.6,279.5,338.8,279.5 M351.3,277.4c0.4-0.7,0.8-1.5,1.1-2.2
				c16.7-37.9,33.5-75.7,50.2-113.6c0.9-2.1,1.7-4.2,2.3-6.3c2.9-11.4-3.3-21.2-14-24.7c-13.4,48.9-26.8,97.8-40.2,146.6
				C350.9,277.2,351.1,277.3,351.3,277.4 M45.5,31.1L45.5,31.1L45.5,31.1L45.5,31.1c-9.4,0-17.8,3-24.9,8.9
				C9.6,49.1,4,61.6,3.9,77.1l0,6.5c-0.1,8.1-0.1,16.4-0.1,24.7c0,67.1,0,134.2,0,201.4c0,11.4,3.5,21.9,10.4,31.2
				c7.6,10.2,17.9,15.4,30.7,15.4c20.5,0,41,0,61.4,0l31.2,0l31.2,0l6,0l4.3,0l25.8,0l25.8,0c19.1,0,41.7,0,64.9,0
				c5.7,0,11.2-0.4,16.3-0.9c14.9-1.3,26.3-8.9,33.6-22.3c1-1.8,1.9-3.6,2.8-5.7l11-25c13.8-31.2,28.1-63.4,42-95.1
				c6.5-14.6,12.7-29.2,18.6-43.4c2.9-7,3.5-14.7,1.8-22.7c-2.6-12-9.9-20.8-21.2-25.4c-1-0.4-1.7-0.7-2-0.9c0-0.1,0-0.2,0-0.3
				c-1.6-16.7-11.5-28.3-27.8-32.6c-1-0.3-1.3-0.5-1.4-0.5l0,0c0,0-0.2-0.3-0.4-1.5c-2.7-15.8-14.4-28-29.8-30.9
				c-3.8-0.7-7.5-1-10.9-1.2c-1.2-0.1-1.7-0.4-2.5-1.3C317.6,36.2,307,31.1,294,31.1c-0.2,0-0.4,0-0.5,0c-5.7,0.1-11.4,0.1-16.3,0.1
				l-5,0l-4.3,0l-35.9,0C170.9,31.2,107.7,31.2,45.5,31.1L45.5,31.1z M48,329.5c-1.6,0-3.5,0-5.1-0.3c-6.8-1.2-11.9-7.1-12.8-14.9
				c-0.4-3.1-0.4-6.4-0.4-9.8c0-77.7,0-140.9,0-199.2c0-1.8,0-3.6,0-5.3c0-8.4,0-17.2,0.5-25.6c0.2-2.9,1.3-6.5,3.3-10.6
				c1.9-3.9,5.2-6,10.1-6.2c1.9-0.1,3.9-0.2,6.6-0.2c1.3,0,2.7,0,4,0c1.4,0,2.8,0,4.2,0h0.1l18.1,0c45.3,0,90.6,0,135.9,0
				c25.7,0,51.4,0,77.1,0c3.3,0,5.9,0.2,8.1,0.7c7.5,1.6,11.7,6.5,12.5,14.5c0.2,2.4,0.4,4.8,0.4,7c0,73.2,0,148.9-0.1,225
				c0,4.4-0.1,8.9-1.1,12.7c-1.9,6.8-5.5,10.5-11.5,11.8c-1,0.2-2.4,0.2-3.9,0.2l-0.2,0c-27.9,0-55.8,0-83.8,0l-19.6,0l-19.6,0h-7v0
				l-18.2,0l-25.2,0c-22.7,0-45.4,0-68.1,0h-0.1c-0.7,0-1.4,0-2.1,0C49.4,329.5,48.7,329.5,48,329.5L48,329.5z M336.2,159.1
				c0-27.7-0.1-55.4-0.1-83.1c0-0.5,0-1,0-1.4c0-0.2,0-0.5,0-0.7c5.2,1.8,8.6,6.3,8.8,12.1c0.2,6.4-0.7,13.3-1.5,19.9l0,0.2
				c-1.7,13-3.5,26.2-5.2,39C337.4,149.7,336.8,154.4,336.2,159.1L336.2,159.1z M358.4,182l10.1-74.6c2.8,1.6,4.9,4.5,5.8,8.1
				c0.8,3.3,0.6,6.8-0.7,11.5C368.4,145.3,363.4,163.7,358.4,182L358.4,182z M380.9,193.4l14.3-52.3c3,3.2,4.1,7.5,2.9,12.3
				c-0.4,1.5-1,3.2-1.9,5.2C391.2,170.2,386.1,181.8,380.9,193.4L380.9,193.4z"/>
		</g>
		<g class="st1">
			<path class="st3" d="M94.2,255.8c-5.4,0-9.9,0-14-0.1c-8.6-0.1-14-5.4-14.5-14.1c0-0.5,0-1.1,0-1.6c0-13.5,0-27.1,0-40.6
				c0-0.8,0-1.5,0-2.3c0.3-8.7,5.9-14.1,14.6-14.1c3.9,0,7.9,0,11.8,0c5.4,0,10.8,0,16.3,0l38.9,0c0.3,0,0.7,0,1,0
				c9.7,0.2,14.9,5.4,15.1,15.1c0.1,4.7,0,9.4,0,13.9c0,2,0,4.1,0,6.1l0,6.5c0,5,0,10,0,15c0,10.7-5.2,16-16,16c-4.3,0-8.7,0-13,0
				c-3.3,0-14.4,0-16.6,0l-3.3,0c-3.4,0-6.8,0-10.1,0C101,255.8,97.6,255.8,94.2,255.8z M79.4,241.8c0.2,0,0.6,0.1,1.3,0.1
				c16.5,0,33.1,0,49.6,0l18,0c0.8,0,1.3-0.1,1.5-0.1c0.1-0.3,0.1-0.8,0.1-1.6c0-15,0.1-28.5,0.1-41.3c0-1.1-0.1-1.7-0.1-2
				c-0.3-0.1-0.9-0.2-2.1-0.2c-4.6,0-29.6,0-29.6,0l-3.5,0l-19.1,0c-4.8,0-9.6,0-14.5,0c-0.9,0-1.4,0.1-1.7,0.1
				c0,0.2-0.1,0.7-0.1,1.5c0,14,0,28,0,42C79.3,241.1,79.3,241.5,79.4,241.8z"/>
			<path class="st3" d="M92.1,186.5c9.2,0,18.4,0,27.6,0c8.9,0,17.7,0,26.6,0c0,0,0,0,0,0c0.3,0,0.7,0,1,0c0.3,0,0.6,0,0.9,0
				c7.8,0.2,11.5,3.9,11.6,11.7c0.1,6.7,0,13.4,0,20.1c0,7.2,0,14.3,0,21.5c0,8.8-3.6,12.5-12.5,12.5c-4.3,0-8.7,0-13,0
				c-6.6,0-13.2,0-19.8,0c0,0,0,0,0,0c-6.8,0-13.6,0-20.3,0c-4.7,0-9.3,0-14-0.1c-6.9-0.1-10.7-3.9-11-10.8c0-0.5,0-1,0-1.4
				c0-13.5,0-27.1,0-40.6c0-0.7,0-1.4,0-2.2c0.3-6.8,4.3-10.7,11.1-10.7C84.2,186.5,88.2,186.5,92.1,186.5 M114.6,193.3
				c-6.4,0-12.7,0-19.1,0c-4.8,0-9.7,0-14.5,0c-4.1,0-5.3,1.1-5.3,5.1c0,14,0,28,0,42c0,3.9,1,4.9,4.9,4.9c16.6,0,33.1,0,49.7,0
				c6,0,12,0,18,0c4.1,0,5.1-1.1,5.1-5.2c0-13.8,0.1-27.5,0.1-41.3c0-4.6-1.1-5.6-5.8-5.6c-4.7,0-9.4,0-14.1,0
				C127.3,193.2,121,193.2,114.6,193.3C114.6,193.2,114.6,193.2,114.6,193.3 M92.1,179.5c-3.9,0-7.9,0-11.8,0
				c-10.6,0-17.6,6.9-18.1,17.5c0,0.8,0,1.6,0,2.4c0,13.5,0,27.1,0,40.6c0,0.7,0,1.3,0,1.8c0.5,10.7,7.4,17.4,17.9,17.5
				c4.1,0,8.6,0.1,14,0.1c3.4,0,6.8,0,10.2,0c3.4,0,6.8,0,10.2,0h7v0c1,0,1.9,0,2.9,0c3.3,0,6.6,0,9.9,0c4.4,0,8.7,0,13.1,0
				c12.7-0.1,19.4-6.8,19.5-19.5c0-5,0-10,0-15l0-6.6c0-2,0-4.1,0-6.1c0-4.6,0-9.3,0-14c-0.1-11.5-6.9-18.3-18.5-18.6
				c-0.4,0-0.7,0-1.1,0l-0.5,0l-0.5,0l-26.6,0c-3.8,0-7.6,0-11.4,0C102.9,179.5,97.5,179.5,92.1,179.5L92.1,179.5z M121.6,200.2
				l2.5,0l9.5,0c4.3,0,8.6,0,12.8,0c0,11.9,0,24.5,0,38.2c-5.4,0-10.7,0-16.1,0c-16.1,0-32.1,0-47.6,0c0-13.1,0-25.9,0-38.1
				c4.3,0,8.5,0,12.8,0l9.5,0l9.5,0L121.6,200.2L121.6,200.2L121.6,200.2z"/>
		</g>
		<g class="st1">
			<path class="st3" d="M75.3,283.8c-2.1,0-6.5,0-8.4-4.5c-1.1-2.5-1-5.2,0.2-7.4c1.2-2.2,3.4-3.7,6.1-4.1c0.7-0.1,1.4-0.1,2-0.1
				c0,0,126.6,0,189.5,0c3.4,0,5.9,0.9,7.6,2.8c1,1.1,2.1,3.1,1.8,6.2c-0.4,4.1-3.2,6.8-7.3,7.1c-0.4,0-0.9,0-1.3,0l-1.4,0h-90.5
				l-3.5,0.1L75.3,283.8z"/>
			<path class="st3" d="M75.1,271.1c0.2,0,0.5,0,0.7,0c62.9,0,125.9,0,188.8,0c4.3,0,6.3,1.8,6,5.1c-0.2,2.4-1.7,3.8-4.1,4
				c-0.4,0-0.7,0-1.1,0c-0.5,0-0.9,0-1.4,0c-21.9,0-43.9,0-65.8,0c-9.4,0-18.8,0-28.2,0c0,0,0,0,0,0.1c-12.1,0-24.2,0-36.3,0
				c-19.5,0-39,0-58.5,0c0,0,0,0,0,0c-2.1,0-4.2,0-5.3-2.4c-1.4-3.2,0.3-6.1,3.6-6.7C74.2,271.1,74.7,271.1,75.1,271.1 M75.1,264.1
				c-0.7,0-1.6,0-2.5,0.2c-3.8,0.6-6.9,2.7-8.7,5.8c-1.7,3.2-1.9,7-0.4,10.5c2.9,6.7,9.3,6.7,11.7,6.7c19.5,0,39,0,58.5,0l18.1,0
				l18.1,0h7v-0.1h21.2l65.8,0c0.2,0,0.4,0,0.6,0c0.3,0,0.5,0,0.8,0c0.6,0,1.1,0,1.5,0c5.8-0.4,10-4.5,10.6-10.3
				c0.4-4.4-1.3-7.2-2.7-8.9c-2.4-2.6-5.8-3.9-10.2-3.9c-62.9,0-125.9,0-188.8,0l-0.3,0L75.1,264.1L75.1,264.1z"/>
		</g>
		<g class="st1">
			<path class="st3" d="M179.1,159.4c-5,0-6.6-3.3-7.1-5.3c-0.6-2.4-1.3-4.8-1.9-7.2c-0.7-2.5-1.3-5-2-7.5
				c-2.7-10.5-5.5-21-8.2-31.5c-0.2-0.6-0.3-1.2-0.4-1.9c-0.1-0.3-0.1-0.7-0.2-1.1l-0.8-4.2h4.2c0.5,0,1.1,0,1.6,0
				c0.5,0,1.1,0,1.6,0c1.1,0,2,0.1,2.8,0.2c2.6,0.4,3.9,3.2,4.2,4.7c2.2,9.4,4.3,18.9,6.5,28.4c2.4-8.9,4.7-17.9,7.1-26.8
				c1.1-4.2,5.1-7.3,9.5-7.3c1.5,0,3,0.4,4.4,1.1c1.8,1,2.3,2.9,2.6,3.9c2.3,8.7,4.6,17.3,6.9,25.9l0.6,2.3
				c0.9-3.9,6.2-25.9,6.2-25.9c0.5-1.9,1.7-7,7-7c1.3,0,2.8,0.3,4.8,1l3,1.1l-1.9,7.2c-0.8,2.9-1.5,5.7-2.3,8.6
				c-0.8,2.9-1.6,5.8-2.3,8.7c-2.3,8.7-4.7,17.6-7,26.4c-1,4-3.4,5.9-7.6,5.9c-5.7,0-6.8-4.2-7.2-5.8c-2.6-10-5.4-20.2-8.1-30.1
				c-2.8,10-5.6,20.4-8.3,30.6c-1.3,5.1-5.4,5.3-7,5.4C179.5,159.4,179.3,159.4,179.1,159.4z"/>
			<path class="st3" d="M196.1,103.4c0.9,0,1.8,0.2,2.7,0.7c0.5,0.3,0.7,1.2,0.9,1.8c3.4,12.7,6.7,25.3,10.1,38
				c0.2,0.7,0.5,1.5,0.7,2.2c0.2,0,0.3,0,0.5,0c0.4-1.7,0.9-3.3,1.3-5c2.6-11,5.2-22.1,7.9-33.1c0.7-3,1.6-4.3,3.6-4.3
				c0.9,0,2.1,0.3,3.6,0.8c-1.1,4.2-2.3,8.5-3.4,12.7c-3.1,11.7-6.3,23.4-9.3,35.2c-0.6,2.5-1.7,3.2-4.3,3.3c0,0,0,0-0.1,0
				c-2.5,0-3.2-1-3.8-3.2c-3.4-13-7-25.9-10.5-38.9c-0.2-0.8-0.5-1.5-0.9-2.9c-0.5,1.2-0.7,1.8-0.9,2.3c-3.7,13.3-7.4,26.6-10.9,40
				c-0.6,2.3-1.8,2.7-3.7,2.7c-0.2,0-0.3,0-0.5,0c-1.9,0-3.2-0.6-3.8-2.7c-1.3-4.9-2.6-9.8-3.9-14.7c-2.7-10.5-5.5-21-8.2-31.5
				c-0.2-0.8-0.3-1.5-0.5-2.8c1.1,0,2.2-0.1,3.2-0.1c0.8,0,1.5,0,2.3,0.2c0.6,0.1,1.2,1.3,1.4,2.1c2.9,12.7,5.8,25.4,8.7,38.1
				c0.2,0.8,0.4,1.5,1.1,2.4c0.3-0.8,0.7-1.6,1-2.5c3.2-12.1,6.4-24.2,9.6-36.4C190.7,105.3,193.4,103.4,196.1,103.4 M196.1,96.4
				L196.1,96.4c-6,0-11.4,4.2-12.9,9.9c-1.2,4.6-2.4,8.9-3.4,13c-1.1-4.8-2.2-9.7-3.3-14.5c-0.7-3-3-6.7-7.1-7.4
				c-1-0.2-2.1-0.3-3.4-0.3c-0.5,0-1.1,0-1.7,0c-0.5,0-1,0-1.5,0h-8.5l1.6,8.3c0.1,0.4,0.1,0.7,0.2,1c0.1,0.7,0.2,1.4,0.4,2.2
				c2.7,10.5,5.4,21,8.2,31.5c0.7,2.5,1.3,5,2,7.5c0.6,2.4,1.3,4.8,1.9,7.2c1.3,5,5.2,7.9,10.5,7.9c0.3,0,0.5,0,0.8,0
				c6.8-0.3,9.3-4.5,10.2-8c1.6-6.1,3.2-12.2,4.9-18.2c1.6,5.9,3.2,11.8,4.7,17.7c1.8,6.9,6.7,8.4,10.5,8.4l0.1,0
				c7.3,0,10-4.7,11-8.5c2.2-8.8,4.6-17.7,6.9-26.3c0.8-2.9,1.6-5.9,2.3-8.8c0.8-2.9,1.6-5.8,2.3-8.7l1.1-4l1.7-6.2l-6-2.2
				c-2.4-0.9-4.2-1.3-6-1.3c-3.7,0-8.5,1.7-10.4,9.7c-1,4.1-2,8.2-2.9,12.3c-1.3-4.9-2.6-9.8-3.9-14.7l0-0.1
				c-0.3-1.3-1.2-4.4-4.3-6.1C200.3,96.9,198.2,96.4,196.1,96.4L196.1,96.4z"/>
		</g>
		<g class="st1">
			<path class="st3" d="M104.2,159.6c-2,0-3.8-0.7-5.3-2.2c-1.3-1.3-2.3-2.7-3.1-4c-5.4-8.3-10.8-16.6-16.2-24.8l-1.2-1.9v32.1h-13
				v-56.8l2.3-0.9c2-0.8,3.6-1.1,5-1.1c3.8,0,6,2.5,7.6,5c5.1,7.8,10.2,15.6,15.3,23.4l2.9,4.4v-32.3h12.8l0.2,3.3
				c0,0.3,0,0.6,0.1,0.9c0,0.7,0.1,1.4,0.1,2.1l0,3.5c0,13.7,0,27.9,0,41.9c0,1.8-0.4,5.1-2.9,6.2
				C107,159.3,105.5,159.6,104.2,159.6z"/>
			<path class="st3" d="M72.6,103.6c1.9,0,3.1,1,4.7,3.4c7.6,11.7,15.2,23.3,22.8,35c0.4,0.6,0.9,1.2,1.8,1.7c0-13.2,0-26.3,0-39.6
				c2.1,0,3.9,0,5.9,0c0.1,1,0.1,1.9,0.1,2.8c0,15.1,0,30.3,0,45.4c0,1.1-0.2,2.8-0.9,3.1c-0.9,0.4-1.9,0.7-2.8,0.7
				c-1,0-2-0.3-2.8-1.2c-1-1-1.8-2.2-2.6-3.4c-7.6-11.6-15.1-23.2-22.7-34.8c-0.2-0.3-0.5-0.6-0.7-1c-0.2,0-0.3,0.1-0.5,0.1
				c0,13.1,0,26.2,0,39.5c-2.1,0-3.9,0-6,0c0-17,0-33.9,0-50.9C70.4,103.9,71.6,103.6,72.6,103.6 M72.6,96.6c-1.8,0-3.8,0.4-6.2,1.3
				l-4.5,1.7v4.8v50.9v7h7h6h7v-7v-16.9c3.7,5.6,7.3,11.2,11,16.9c0.9,1.4,2,3.1,3.6,4.6c2.1,2.1,4.8,3.2,7.7,3.2
				c1.9,0,3.8-0.4,5.7-1.3c3.2-1.5,5-4.8,5-9.4c0.1-14,0-28.1,0-41.9l0-3.6c0-0.9-0.1-1.7-0.1-2.4c0-0.3,0-0.5-0.1-0.8l-0.3-6.6
				h-6.6h-5.9h-7v7v17.1c-3.9-6-7.8-12-11.7-18C81.9,101.4,78.8,96.6,72.6,96.6L72.6,96.6z"/>
		</g>
		<g class="st1">
			<path class="st3" d="M116.7,158.8v-58.2h42.7v12.5h-29.3v9.2c4.3,0,8.7,0,13,0l8,0c2,0,3.8,0,5.2,1.4c1.4,1.4,1.4,3.2,1.4,5.3
				c0,0.6,0,1.2-0.1,1.8l-0.1,1l-0.2,3.3h-27.3v10.9h30.3v12.7H116.7z"/>
			<path class="st3" d="M155.9,104.1c0,1.8,0,3.5,0,5.5c-9.7,0-19.4,0-29.3,0c0,5.5,0,10.6,0,16c0.9,0.1,1.8,0.2,2.7,0.2
				c7.3,0,14.5,0,21.8,0c3.1,0,3.1,0,3.1,3.2c0,0.8-0.1,1.6-0.1,2.6c-9.2,0-18.3,0-27.5,0c0,6.1,0,11.8,0,17.9c10,0,20,0,30.3,0
				c0,2,0,3.7,0,5.7c-12.1,0-24.3,0-36.7,0c0-17,0-33.9,0-51.2C132.2,104.1,144,104.1,155.9,104.1 M162.9,97.1h-7h-35.7h-7v7v51.2v7
				h7h36.7h7v-7v-5.7v-7h-7h-23.3v-3.9h20.5h6.7l0.3-6.7c0-0.3,0-0.6,0.1-0.9c0-0.7,0.1-1.3,0.1-2c0-2.4,0-5.3-2.4-7.8
				c-2.4-2.5-5.3-2.5-7.7-2.5c-2.7,0-5.4,0-8.1,0c-3.1,0-6.3,0-9.4,0v-2.2h22.3h7v-7v-5.5V97.1L162.9,97.1z"/>
		</g>
		<g class="st1">
			<path class="st3" d="M252.5,160.4c-4.9,0-9.7-1.3-14.5-3.9c-6.2-3.4-10-10.6-9.1-17.7l0.4-3.1h10.5l0.9,2.2l0.1,0.3
				c0.2,0.4,0.4,0.8,0.5,1.4c1.5,4.6,6.5,8,12,8c2.5,0,4.9-0.7,6.7-2.1c2.1-1.5,2.2-3,2-4.1c-0.1-1.1-0.6-2.6-2.9-3.4
				c-3.1-1-6.3-1.9-9.4-2.8c-1.6-0.5-3.2-0.9-4.8-1.4c-1.3-0.4-2.8-0.8-4.2-1.4c-6.8-2.7-10.4-7.7-10.5-14.7
				c-0.1-7.4,3.2-12.7,9.9-15.6c3.8-1.6,7.6-2.5,11.4-2.5c4.2,0,8.5,1,12.6,3.1c6.1,3,9.7,9.3,9.2,15.9l-0.2,2.7l-2.6,0.5
				c-0.2,0-0.4,0.1-0.6,0.1c-0.3,0.1-0.7,0.1-0.9,0.2c-0.9,0.3-1.8,0.4-2.6,0.4c-2.8,0-4.9-1.5-6.4-4.5c-1.9-3.7-4.9-5.8-8.7-5.8
				c-1.8,0-3.7,0.5-5.6,1.5c-2.2,1.2-2.5,2.4-2.5,3.5c0,0.6,0,2.1,2.9,3c2.3,0.7,4.5,1.3,6.8,2c3.2,0.9,6.5,1.8,9.7,2.8
				c6.5,2.1,10.6,6.1,12,12c2.1,8.6-1.7,16.8-9.5,20.6C261.1,159.4,256.8,160.4,252.5,160.4z"/>
			<path class="st3" d="M251.7,102.9c3.7,0,7.4,0.9,11,2.7c4.8,2.4,7.7,7.3,7.2,12.4c-0.6,0.1-1.2,0.2-1.8,0.3
				c-0.6,0.2-1.1,0.3-1.6,0.3c-1.4,0-2.4-0.7-3.2-2.5c-2.5-5.1-6.9-7.8-11.8-7.8c-2.3,0-4.8,0.6-7.2,1.9c-2.7,1.4-4.4,3.5-4.4,6.7
				c0.1,3.1,2,5.2,5.4,6.3c5.5,1.6,11,3.1,16.4,4.8c4.8,1.5,8.4,4.3,9.7,9.5c1.7,6.8-1.3,13.6-7.6,16.6c-3.8,1.8-7.5,2.7-11.3,2.7
				c-4.3,0-8.6-1.2-12.9-3.5c-5-2.7-8-8.6-7.3-14.2c1.7,0,3.3,0,5.1,0c0.2,0.4,0.4,0.9,0.6,1.4c2,6.4,8.8,10.4,15.4,10.4
				c3.1,0,6.2-0.9,8.8-2.8c2.4-1.8,3.8-4.2,3.4-7.3c-0.4-3.2-2.4-5.3-5.3-6.3c-4.7-1.6-9.6-2.9-14.3-4.3c-1.3-0.4-2.6-0.8-3.9-1.3
				c-5.5-2.2-8.2-5.9-8.2-11.5c-0.1-6,2.4-10,7.8-12.4C245,103.7,248.4,102.9,251.7,102.9 M251.7,95.9c-4.3,0-8.6,0.9-12.8,2.8
				c-8,3.5-12.2,10-12,18.9c0.1,6.2,2.4,11.1,6.8,14.6h-1.3h-6.2l-0.8,6.1c-1.1,8.6,3.3,17.1,10.9,21.2c5.3,2.9,10.7,4.3,16.2,4.3
				c4.8,0,9.6-1.1,14.3-3.4c9.2-4.4,13.9-14.5,11.4-24.6c-0.8-3.4-2.8-7.6-7.1-10.9c0.1,0,0.1,0,0.2,0l5.2-1l0.4-5.3
				c0.7-8-3.7-15.6-11.1-19.3C261.2,97.1,256.4,95.9,251.7,95.9L251.7,95.9z M247.3,116.6c0,0,0.1,0,0.1-0.1c1.4-0.7,2.8-1.1,4-1.1
				c3,0,4.7,2.1,5.5,3.9c0,0,0,0.1,0,0.1c-1-0.3-2-0.6-3-0.9C251.8,117.9,249.5,117.2,247.3,116.6L247.3,116.6z M253.4,144
				c-4,0-7.7-2.4-8.7-5.5c-0.2-0.5-0.4-1-0.5-1.4c1.6,0.5,3.1,0.9,4.7,1.4c3.2,0.9,6.3,1.8,9.3,2.8c0.3,0.1,0.5,0.2,0.5,0.2
				c0,0,0,0.1,0,0.2c0,0.1,0,0.2,0,0.2c0,0,0,0,0,0c0,0-0.1,0.2-0.7,0.6C256.5,143.8,254.7,144,253.4,144L253.4,144z"/>
		</g>
		<g class="st1">
			<path class="st3" d="M206.5,200c-5.6,0-11.2,0-16.8,0c-5.6,0-9-3-9.1-7.9c-0.1-4,2.1-6.8,5.9-7.7c1.2-0.3,2.5-0.4,3.9-0.4
				c11.7,0,23.3,0,35,0c12.9,0,25.8,0,38.7,0c1.8,0,3.4,0.2,4.9,0.7c3.2,1,5.1,3.7,5.2,7.1c0.1,3.6-1.9,6.4-5.1,7.5
				c-1.4,0.5-3.1,0.7-4.9,0.7c-6.8,0-13.5,0-20.3,0L206.5,200z"/>
			<path class="st3" d="M225.4,187.5c12.9,0,25.8,0,38.7,0c1.3,0,2.6,0.2,3.8,0.5c1.8,0.6,2.7,1.9,2.8,3.8c0,2-0.8,3.5-2.7,4.1
				c-1.2,0.4-2.5,0.5-3.8,0.5c-6.8,0-13.6,0-20.4,0c-5.5,0-11,0-16.5,0c-0.2,0-0.4,0-0.6,0c-6.7,0-13.4,0-20.1,0
				c-5.6,0-11.2,0-16.8,0c-3.8,0-5.5-1.5-5.6-4.5c0-2.3,1-3.7,3.2-4.2c1-0.2,2.1-0.3,3.1-0.3C202.1,187.5,213.7,187.5,225.4,187.5
				 M225.4,180.5c-11.7,0-23.3,0-35,0c-1.6,0-3.1,0.2-4.6,0.5c-5.4,1.2-8.8,5.5-8.6,11.1c0.1,5.2,3.5,11.3,12.6,11.4
				c5.6,0,11.2,0,16.8,0l10.1,0l10.1,0h0.6l8,0l8.5,0c6.8,0,13.6,0,20.4,0c2.2,0,4.2-0.3,5.9-0.9c4.7-1.6,7.6-5.7,7.5-10.9
				c-0.1-4.9-3-8.9-7.6-10.4c-1.8-0.6-3.8-0.9-5.9-0.9C251.2,180.5,238.3,180.5,225.4,180.5L225.4,180.5z"/>
		</g>
		<g class="st1">
			<path class="st3" d="M212.7,228c-7.3,0-14.5,0-21.8,0c-1.1,0-2.4,0-3.7-0.3c-4.5-0.8-6.8-3.8-6.6-8.3c0.2-4.1,3.2-7,7.5-7.3
				c1.2-0.1,2.3-0.1,3.3-0.1l2,0c23.9,0,47.7,0,71.5,0c1.4,0,2.7,0.2,3.9,0.6c3.3,1.1,5.2,3.8,5.2,7.3c0,3.6-2,6.3-5.4,7.4
				c-1.4,0.4-3,0.7-5.1,0.7c-6.7,0-13.4,0-20.2,0L212.7,228z"/>
			<path class="st3" d="M191.5,215.4c0.7,0,1.3,0,2,0c23.8,0,47.7,0,71.5,0c0.9,0,1.9,0.1,2.8,0.4c1.9,0.6,2.8,2,2.8,4
				c0,2-1,3.4-2.9,4c-1.3,0.4-2.7,0.5-4,0.5c-6.6,0-13.3,0-19.9,0c-5.5,0-11,0-16.6,0c0,0-0.1,0-0.1,0c-5,0-10,0-15.1,0
				c-7,0-14.1,0-21.1,0c-1,0-2.1,0-3.1-0.2c-2.8-0.5-3.9-1.9-3.7-4.7c0.1-2.4,1.6-3.8,4.3-4C189.4,215.5,190.4,215.4,191.5,215.4
				 M191.5,208.4c-1,0-2.3,0-3.6,0.1c-6.1,0.4-10.4,4.7-10.8,10.6c-0.4,6.3,3.3,10.9,9.5,12c1.6,0.3,3.1,0.3,4.4,0.3
				c7,0,14.1,0,21.1,0l7.5,0l7.5,0h0.1l8.3,0l8.3,0c6.7,0,13.3,0,20,0c2.4,0,4.3-0.3,6.1-0.8c4.8-1.5,7.8-5.6,7.8-10.7
				c0-5-2.9-9.1-7.6-10.7c-1.6-0.5-3.3-0.8-5-0.8c-24.5,0-49.5,0-71.6,0l-1,0L191.5,208.4L191.5,208.4z"/>
		</g>
		<g class="st1">
			<path class="st3" d="M223.7,255.9L223.7,255.9c0-0.1-25.2-0.1-33-0.1l-0.1-3.5v3.5c-0.9,0-2,0-3.2-0.1c-4.1-0.5-6.6-3.1-6.8-7.2
				c-0.2-4.3,2-7.3,6-8.2c1.5-0.3,3-0.4,4.1-0.4c12.9,0,25.8,0,38.6,0c11.5,0,23,0,34.5,0c1.2,0,2.2,0.1,3.2,0.2
				c4.5,0.7,7.2,3.8,7.1,8c-0.1,4.3-3.3,7.4-7.7,7.6c-3.9,0.2-7.8,0.2-11.6,0.2l-1.4,0c-3.6,0-7.3,0-10.9,0L223.7,255.9z"/>
			<path class="st3" d="M228.8,243.3c11.7,0,23.4,0,35.1,0c0.9,0,1.8,0.1,2.6,0.2c2.7,0.4,4.2,2.1,4.1,4.5c-0.1,2.4-1.7,4.1-4.4,4.2
				c-4.3,0.2-8.5,0.2-12.8,0.2c-3.7,0-7.3,0-11,0c-5.1,0-10.2,0-15.3,0c0,0,0-0.1,0-0.1c-4.9,0-9.8,0-14.7,0c-7.2,0-14.5,0-21.7,0
				c-1,0-1.9,0-2.9-0.1c-2.4-0.3-3.6-1.6-3.7-3.9c-0.1-2.5,1-4.1,3.3-4.6c1.1-0.2,2.2-0.3,3.4-0.3
				C203.4,243.3,216.1,243.3,228.8,243.3 M228.8,236.3c-12.7,0-25.4,0-38.1,0c-1.2,0-3,0.1-4.9,0.5c-5.6,1.2-9,5.9-8.7,11.8
				c0.3,5.8,4,9.8,9.9,10.6c1.3,0.2,2.6,0.2,3.6,0.2l0.1,0c7.2,0,14.5,0,21.7,0l7.4,0h0.4l7,0.1l7.7,0l7.7,0c3.7,0,7.3,0,11,0l1.3,0
				c3.8,0,7.8,0,11.7-0.2c6.3-0.3,10.9-4.9,11.1-11c0.1-5.9-3.9-10.6-10-11.6c-1.2-0.2-2.4-0.3-3.8-0.3
				C252.2,236.3,240.5,236.3,228.8,236.3L228.8,236.3z"/>
		</g>
	</g>
	<g class="st2">
		<path class="st0" d="M105.2,160.3H91.7l-24.6-37.5c-1.4-2.2-2.4-3.8-3-4.9h-0.2c0.2,2.1,0.3,5.3,0.3,9.6v32.8H51.6v-59.6h14.5
			L89.7,137c1.1,1.6,2.1,3.3,3,4.9h0.2c-0.2-1.4-0.3-4.1-0.3-8.2v-33h12.7V160.3z"/>
		<path class="st0" d="M154.6,160.3h-35.8v-59.6h34.4v10.9h-21v13.3h19.5v10.9h-19.5v13.6h22.3V160.3z"/>
		<path class="st0" d="M242.2,100.7l-15.8,59.6h-14.9l-9.9-38.3c-0.5-2-0.8-4.2-1-6.7h-0.2c-0.2,2.7-0.6,4.9-1.1,6.7l-10.1,38.3
			h-15.5l-15.7-59.6h14.7l8.4,39.7c0.4,1.7,0.6,4,0.8,6.8h0.2c0.1-2.1,0.5-4.5,1.2-7l10.8-39.5h14.4l9.8,40c0.4,1.5,0.7,3.6,1,6.4
			h0.2c0.1-2.2,0.4-4.4,0.9-6.7l8.2-39.8H242.2z"/>
		<path class="st0" d="M247,158v-13.3c2.4,2,5,3.5,7.9,4.6c2.8,1,5.7,1.5,8.6,1.5c1.7,0,3.2-0.2,4.4-0.5c1.3-0.3,2.3-0.7,3.2-1.3
			c0.8-0.5,1.5-1.2,1.9-1.9c0.4-0.7,0.6-1.5,0.6-2.4c0-1.2-0.3-2.2-1-3.1c-0.7-0.9-1.6-1.8-2.7-2.5c-1.2-0.8-2.5-1.5-4.1-2.2
			c-1.6-0.7-3.3-1.5-5.1-2.2c-4.7-1.9-8.1-4.3-10.4-7.1c-2.3-2.8-3.4-6.2-3.4-10.1c0-3.1,0.6-5.8,1.9-8c1.2-2.2,2.9-4.1,5.1-5.5
			c2.1-1.4,4.6-2.5,7.5-3.2c2.8-0.7,5.8-1,9-1c3.1,0,5.9,0.2,8.3,0.6s4.6,0.9,6.6,1.7v12.4c-1-0.7-2.1-1.3-3.3-1.8s-2.4-1-3.6-1.3
			c-1.2-0.3-2.5-0.6-3.7-0.8c-1.2-0.2-2.4-0.2-3.5-0.2c-1.5,0-2.9,0.1-4.2,0.4c-1.2,0.3-2.3,0.7-3.2,1.2c-0.9,0.5-1.5,1.2-2,1.9
			c-0.5,0.7-0.7,1.6-0.7,2.5c0,1,0.3,1.9,0.8,2.7c0.5,0.8,1.3,1.5,2.2,2.2s2.1,1.4,3.5,2.1c1.4,0.7,3,1.4,4.7,2.1
			c2.4,1,4.5,2.1,6.4,3.2c1.9,1.1,3.5,2.4,4.9,3.8c1.4,1.4,2.4,3,3.1,4.8c0.7,1.8,1.1,3.9,1.1,6.3c0,3.3-0.6,6.1-1.9,8.4
			c-1.3,2.3-3,4.1-5.1,5.5c-2.2,1.4-4.7,2.4-7.5,3c-2.9,0.6-5.9,0.9-9.1,0.9c-3.3,0-6.4-0.3-9.3-0.8S249.2,159.1,247,158z"/>
	</g>
	<path class="st4" d="M157.6,261H65.4c-4.4,0-7.9-3.5-7.9-7.9v-47.2c0-4.4,3.5-7.9,7.9-7.9h92.2c4.4,0,7.9,3.5,7.9,7.9v47.2
		C165.5,257.5,162,261,157.6,261z"/>
	<line class="st5" x1="197" y1="200" x2="287.7" y2="200"/>
	<line class="st5" x1="196.8" y1="228.5" x2="287.5" y2="228.5"/>
	<line class="st5" x1="197" y1="260" x2="287.7" y2="260"/>
	<line class="st6" x1="61.2" y1="297.7" x2="287.5" y2="297.7"/>
</g>
</svg>
