<svg xmlns="http://www.w3.org/2000/svg" viewBox="0 0 924 924"><defs><style>.cls-1{fill:#1479ff;}</style></defs><title>Asset 2</title><g id="Layer_2" data-name="Layer 2"><g id="Layer_5" data-name="Layer 5"><path class="cls-1" d="M462,50A412,412,0,0,1,796.37,702.75,415.69,415.69,0,0,1,652.71,827.31a409.43,409.43,0,0,1-90.87,34.52,415.7,415.7,0,0,1-199.67,0,409.43,409.43,0,0,1-90.87-34.52A415.71,415.71,0,0,1,127.63,702.74,411.84,411.84,0,0,1,462,50m0-50C206.84,0,0,206.84,0,462A459.8,459.8,0,0,0,87.08,732C171,848.3,307.64,924,462,924s291-75.7,374.92-192A459.8,459.8,0,0,0,924,462C924,206.84,717.16,0,462,0Z"/><path class="cls-1" d="M462,204.5a122.5,122.5,0,1,1-86.62,35.88A121.7,121.7,0,0,1,462,204.5m0-50A172.5,172.5,0,1,0,634.5,327,172.5,172.5,0,0,0,462,154.5Z"/><path class="cls-1" d="M462,590a413.9,413.9,0,0,1,99.84,12.17,409.43,409.43,0,0,1,90.87,34.52A415.66,415.66,0,0,1,773.17,732a415.65,415.65,0,0,1-120.47,95.31,409.43,409.43,0,0,1-90.87,34.52,415.7,415.7,0,0,1-199.67,0,409.43,409.43,0,0,1-90.87-34.52A415.66,415.66,0,0,1,150.83,732a415.66,415.66,0,0,1,120.47-95.31,409.43,409.43,0,0,1,90.87-34.52A413.9,413.9,0,0,1,462,590m0-50c-154.36,0-291,75.7-374.92,192C171,848.3,307.64,924,462,924s291-75.7,374.92-192C753,615.7,616.36,540,462,540Z"/></g></g></svg>