<svg xmlns="http://www.w3.org/2000/svg" viewBox="0 0 1041.58 743"><defs><style>.cls-1{fill:#1479ff;}</style></defs><title>Asset 1</title><g id="Layer_2" data-name="Layer 2"><g id="Layer_3" data-name="Layer 3"><path class="cls-1" d="M520.76,743H111.42C52.31,743,3.21,696.24.31,637.22c-.14-2.86-.27-5.73-.27-8.59q0-256.7.05-513.39C.14,63.93,29.09,22.49,77,6.58,90.25,2.16,105,.52,119.15.5,386.88.16,654.62.56,922.35,0c57.49-.12,98.8,33.6,112.76,75.15,3.68,11,6.12,22.92,6.14,34.42q.57,261.86.2,523.71C1041.4,693.52,991.21,743,931,743ZM75,178.88c-.22,4.4-.51,7.43-.51,10.46q0,105.34,0,210.67c0,74.81.54,149.62-.28,224.42-.3,27.38,17,44.73,44.21,44.66q403.71-.93,807.42,0c23.9,0,41.71-17.41,41.62-41.75-.56-145.89-.27-291.78-.29-437.68,0-3-.27-6.08-.48-10.38-3.87,2.22-6.59,3.68-9.21,5.29Q751.7,310.91,546.08,437.44c-17.41,10.74-33.17,10.44-50.48-.23Q301.41,317.46,106.86,198.3C96.67,192,86.43,185.86,75,178.88Zm5-84.56c3.85,2.48,7.13,4.68,10.5,6.75q211.52,130,423,260c5.85,3.6,9.76,3.16,15.36-.28Q739.88,230.89,951.15,101.29c3.57-2.19,7-4.58,11.5-7.5-3.19-3.72-5.47-7-8.32-9.57C945,75.65,933.4,74.5,921.41,74.5q-400.59.05-801.18.1a79.11,79.11,0,0,0-17.87,1.83C92.81,78.67,85.26,84.09,80,94.31Z"/></g></g></svg>