<svg xmlns="http://www.w3.org/2000/svg" viewBox="0 0 1010.72 777.28"><defs><style>.cls-1{fill:#1479ff;}</style></defs><title>Asset 3</title><g id="Layer_2" data-name="Layer 2"><g id="Layer_2-2" data-name="Layer 2"><path class="cls-1" d="M398.5.12c103,0,206,.18,309-.12C736.12-.08,757.83,11.85,775,34a18.26,18.26,0,0,0,10.42,6.22c10.58,1.81,21.5,1.73,32,3.8,31.2,6.15,55.48,33.11,60.57,67.6,1.17,7.9,4.23,11,11.68,12.94,38.7,10.08,57.58,32.21,61.81,71.84.53,4.92,1.92,8.35,6.88,9.91,2.08.65,3.92,2,6,2.82,43.16,16.3,54,62.18,41.55,97.41-9.61,27.19-22.2,53.35-33.87,79.79Q899.3,551.06,826.37,715.75c-12.58,28.49-31.72,50.21-63.1,56.94-16.27,3.49-33.36,4.34-50.09,4.36q-314.85.42-629.7.07c-35.69,0-58-21-72.89-51.17C3.16,710.93.11,694.61.1,677.85c0-193.05-.3-386.1.21-579.16C.41,60.95,15,29.32,48.84,9.19,60.23,2.43,72.91.08,86.14.09Q242.32.18,398.5.12Zm-.71,30.65c-103.27,0-206.54.19-309.81-.14-24.6-.08-41.35,11.45-50.55,33a92.52,92.52,0,0,0-7.16,35.2Q29.58,329.08,30,559.36c0,40.59-.28,81.18.1,121.77.31,32.89,21.53,64.34,58.81,64.24,207.09-.57,414.18-.26,621.28-.26,13.25,0,24.82-4.23,34.48-13.52,14.61-14,20.83-31.56,20.88-51.36.15-62.13.06-124.25.06-186.38q0-197.57,0-395.13c0-44.72-22.94-67.95-67.09-68Q548.14,30.75,397.79,30.77ZM794.37,70.16c.35,26.44,1,52.79,1,79.14q.16,193.36,0,386.72v9.83c4.55-22.31,7.43-44.67,10.45-67q8.8-65.11,17.71-130.21,9.57-70.85,19-141.71c3.34-25.12,7.73-50.19,9.42-75.43C854.24,97.62,834.2,67.77,794.37,70.16Zm23,533.42.86.8c.74-2.31,1.56-4.61,2.21-6.95q49.47-179.93,98.86-359.88c4-14.56,8.37-29,5.6-44.65-4.22-23.88-23-41.31-46.58-41.44Zm132-373.43-100.93,368a4.32,4.32,0,0,0,2.83-2.36q64.3-145.46,128.5-291C991.31,278.74,988.48,246.31,949.41,230.14Z"/><path class="cls-1" d="M232,564.18q-49.84,0-99.68,0c-21.88,0-34.59-12.32-34.65-33.94q-.19-64.64,0-129.28c.07-20.56,13-33.06,33.39-33.05q99.68,0,199.35.06c25.88,0,37.17,11.26,37.19,37.17q.05,61.19,0,122.38c0,25.15-11.66,36.63-36.92,36.66Q281.34,564.22,232,564.18Zm1.1-175.62q-50.28,0-100.56,0c-12.05,0-15.26,3.1-15.28,15q-.09,62.6,0,125.2c0,11.57,2.9,14.38,14.79,14.39q100.56.07,201.11,0c11.59,0,14.87-3.11,14.89-14.41q.14-63.09,0-126.19c0-10.44-3.77-13.93-14.4-13.95Q283.38,388.5,233.1,388.56Z"/><path class="cls-1" d="M397.44,647.39H120.13c-3,0-5.93.08-8.88-.06-7.43-.35-11.44-4.65-12.28-11.7-.88-7.45,2.25-12.94,9.69-15,3.08-.86,6.5-.73,9.76-.73q279.28,0,558.57,0a50.54,50.54,0,0,1,7.88.17c8,1.28,12.42,6.59,12,14.32s-4.86,12.9-13.28,13c-16.12.12-32.24.06-48.36.06Z"/><path class="cls-1" d="M484.45,122.18l33.7,127.92c.78-3,1.75-6.49,2.59-10Q533,188.91,545.21,137.71c4.06-17,4-17,23.17-14.59l-41,153.76H508.2L472.54,145l-1.62-.07L435.13,276.52c-19.79,1.93-19.89,2-24.53-15.84Q393.47,195,376.52,129.29c-.48-1.87-.59-3.84-1-6.46h19.62l29,128.7c.91-1.49,2-2.59,2.32-3.88,10.19-38,20.61-75.94,30.2-114.09,2.25-8.94,5.65-13.1,15.09-11.49C475.58,122.72,479.59,122.18,484.45,122.18Z"/><path class="cls-1" d="M194.45,122.44h18.69V275.89c-16.49,3.85-18.37,3.05-27.62-11.19-23.05-35.49-46.16-71-71-109.07v120.9H96.23V123.44c17-3.54,18.24-3,27.09,10.61,23.09,35.51,46.23,71,71.13,109.22Z"/><path class="cls-1" d="M248.75,122.59H356.55v17.63H268.3v47.3h82.8v18.06H268.36v53.08h91.26v17.92H248.75Z"/><path class="cls-1" d="M695.82,165.3l-17.37,2.05C668.07,140.18,648.89,131,622.4,139.9c-10,3.36-17.23,11.74-17,20.71.3,10.12,6.07,16.38,15.57,19.13,16,4.64,32.3,8.54,48.13,13.77,15.33,5.07,27.51,14.15,30.56,31.47,3.79,21.54-6.58,40.84-27.12,49.25-22.19,9.09-44.47,7.7-65.83-2.66-16.47-8-26.46-26.44-24.84-44.35l17.06-.91c2.68,14.16,8.6,25.62,22.79,31,13.76,5.26,27.51,5.86,41.36,1,11.41-4,18.45-12.92,18.63-22.95.17-9.78-5.93-18.23-17.88-22.15-16.17-5.29-32.91-8.91-49-14.46-20.2-7-29.26-20.57-27.94-40.08,1-15.45,9-26.61,23-32.84,20.65-9.14,41.7-8.8,62,.72C687.45,133.93,694.94,147.27,695.82,165.3Z"/><path class="cls-1" d="M568.45,370.87q55.72,0,111.45,0c11,0,17.58,5.52,17.26,14.25-.31,8.32-6.63,13.28-17.32,13.28q-111.94.06-223.88,0c-10.91,0-16.77-4.73-17-13.39-.22-9.35,5.44-14.14,17-14.15Q512.24,370.83,568.45,370.87Z"/><path class="cls-1" d="M567.33,481.43q-55.72,0-111.44,0c-11.2,0-16.64-4.36-16.92-13.27-.29-9.13,5.72-14.25,17.13-14.26q111.93-.05,223.86,0c10.67,0,16.93,5,17.17,13.44.25,8.72-6.27,14.08-17.37,14.08Q623.54,481.46,567.33,481.43Z"/><path class="cls-1" d="M568.41,564.44q-56.2,0-112.41,0c-11.55,0-16.73-4.05-17-13-.3-9.19,5.68-14.44,17-14.45q111.92-.08,223.83,0c11,0,17.68,5.7,17.32,14.37-.35,8.25-6.66,13.11-17.31,13.12Q624.12,564.48,568.41,564.44Z"/></g></g></svg>